<svg width="100" height="100" viewBox="0 0 100 100" fill="none" xmlns="http://www.w3.org/2000/svg">
<g clip-path="url(#clip0_1_25)">
<rect width="100" height="100" fill="white"/>
<rect x="2" y="2" width="96" height="96" rx="10" fill="black"/>
<path d="M49.5156 17.4688C58.3594 17.4688 64.8125 19.375 68.875 23.1875C72.9375 26.9688 74.9688 32.1875 74.9688 38.8438C74.9688 41.8438 74.5156 44.7188 73.6094 47.4688C72.7031 50.1875 71.2188 52.6094 69.1562 54.7344C67.125 56.8594 64.4062 58.5469 61 59.7969C57.5938 61.0156 53.3906 61.625 48.3906 61.625H42.1562V86H27.625V17.4688H49.5156ZM48.7656 29.375H42.1562V49.7188H46.9375C49.6562 49.7188 52.0156 49.3594 54.0156 48.6406C56.0156 47.9219 57.5625 46.7969 58.6562 45.2656C59.75 43.7344 60.2969 41.7656 60.2969 39.3594C60.2969 35.9844 59.3594 33.4844 57.4844 31.8594C55.6094 30.2031 52.7031 29.375 48.7656 29.375Z" fill="white"/>
</g>
<defs>
<clipPath id="clip0_1_25">
<rect width="100" height="100" fill="white"/>
</clipPath>
</defs>
</svg>
